%FSLAX45Y45*%
G04 Gerber Fmt 4.5, Leading zero omitted, Abs format (unit mm)*
G04 Created by KiCad (PCBNEW (5.1.4)-1) date 2020-02-23 18:58:45*
%MOMM*%
%LPD*%
G04 APERTURE LIST*
%ADD10C,0.100000*%
%ADD11C,0.200000*%
%ADD12C,0.300000*%
G04 APERTURE END LIST*
D10*
X4500000Y-2500000D02*
X22500000Y-2500000D01*
X4500000Y-3200000D02*
X4500000Y-2500000D01*
X2500000Y-14400000D02*
X2500000Y-22500000D01*
X4500000Y-14400000D02*
X2500000Y-14400000D01*
X4500000Y-13000000D02*
X4500000Y-14400000D01*
X4500000Y-3200000D02*
X4500000Y-4200000D01*
X4500000Y-4000000D02*
X4500000Y-13000000D01*
X12700000Y-12500000D02*
G75*
G03X12700000Y-12500000I-200000J0D01*
G01*
X22500000Y-22500000D02*
X6500000Y-22500000D01*
X22500000Y-2500000D02*
X22500000Y-22500000D01*
X22300000Y-2900000D02*
G75*
G03X22300000Y-2900000I-200000J0D01*
G01*
X22300000Y-22100000D02*
G75*
G03X22300000Y-22100000I-200000J0D01*
G01*
X5575300Y-4635500D02*
G75*
G03X5575300Y-4635500I-190500J0D01*
G01*
X6591300Y-4635500D02*
G75*
G03X6591300Y-4635500I-190500J0D01*
G01*
X6601605Y-12128500D02*
G75*
G03X6601605Y-12128500I-200805J0D01*
G01*
X5585605Y-12128500D02*
G75*
G03X5585605Y-12128500I-200805J0D01*
G01*
X8632800Y-12128500D02*
G75*
G03X8632800Y-12128500I-200000J0D01*
G01*
X8632800Y-4635500D02*
G75*
G03X8632800Y-4635500I-200000J0D01*
G01*
X3100000Y-22100000D02*
G75*
G03X3100000Y-22100000I-200000J0D01*
G01*
X2500000Y-22500000D02*
X6500000Y-22500000D01*
X5100000Y-2900000D02*
G75*
G03X5100000Y-2900000I-200000J0D01*
G01*
D11*
D12*
X2781428Y-22970714D02*
X2781428Y-22670714D01*
X2852857Y-22670714D01*
X2895714Y-22685000D01*
X2924286Y-22713571D01*
X2938571Y-22742143D01*
X2952857Y-22799286D01*
X2952857Y-22842143D01*
X2938571Y-22899286D01*
X2924286Y-22927857D01*
X2895714Y-22956429D01*
X2852857Y-22970714D01*
X2781428Y-22970714D01*
X3081428Y-22970714D02*
X3081428Y-22770714D01*
X3081428Y-22827857D02*
X3095714Y-22799286D01*
X3110000Y-22785000D01*
X3138571Y-22770714D01*
X3167143Y-22770714D01*
X3267143Y-22970714D02*
X3267143Y-22770714D01*
X3267143Y-22670714D02*
X3252857Y-22685000D01*
X3267143Y-22699286D01*
X3281428Y-22685000D01*
X3267143Y-22670714D01*
X3267143Y-22699286D01*
X3452857Y-22970714D02*
X3424286Y-22956429D01*
X3410000Y-22927857D01*
X3410000Y-22670714D01*
X3610000Y-22970714D02*
X3581428Y-22956429D01*
X3567143Y-22927857D01*
X3567143Y-22670714D01*
X3952857Y-22970714D02*
X3952857Y-22670714D01*
X4052857Y-22885000D01*
X4152857Y-22670714D01*
X4152857Y-22970714D01*
X4424286Y-22970714D02*
X4424286Y-22813571D01*
X4410000Y-22785000D01*
X4381428Y-22770714D01*
X4324286Y-22770714D01*
X4295714Y-22785000D01*
X4424286Y-22956429D02*
X4395714Y-22970714D01*
X4324286Y-22970714D01*
X4295714Y-22956429D01*
X4281428Y-22927857D01*
X4281428Y-22899286D01*
X4295714Y-22870714D01*
X4324286Y-22856429D01*
X4395714Y-22856429D01*
X4424286Y-22842143D01*
X4567143Y-22770714D02*
X4567143Y-23070714D01*
X4567143Y-22785000D02*
X4595714Y-22770714D01*
X4652857Y-22770714D01*
X4681428Y-22785000D01*
X4695714Y-22799286D01*
X4710000Y-22827857D01*
X4710000Y-22913571D01*
X4695714Y-22942143D01*
X4681428Y-22956429D01*
X4652857Y-22970714D01*
X4595714Y-22970714D01*
X4567143Y-22956429D01*
X4838571Y-22942143D02*
X4852857Y-22956429D01*
X4838571Y-22970714D01*
X4824286Y-22956429D01*
X4838571Y-22942143D01*
X4838571Y-22970714D01*
X4838571Y-22785000D02*
X4852857Y-22799286D01*
X4838571Y-22813571D01*
X4824286Y-22799286D01*
X4838571Y-22785000D01*
X4838571Y-22813571D01*
M02*
