M48
; DRILL file {KiCad (5.1.4)-1} date 2020-04-04 오후 5:06:13
; FORMAT={-:-/ absolute / metric / decimal}
; #@! TF.CreationDate,2020-04-04T17:06:13+09:00
; #@! TF.GenerationSoftware,Kicad,Pcbnew,(5.1.4)-1
; #@! TF.FileFunction,Plated,1,2,PTH
FMAT,2
METRIC
T1C0.400
T2C0.500
T3C0.600
T4C0.700
T5C0.762
T6C0.800
T7C0.900
T8C1.000
T9C1.200
T10C1.300
T11C1.500
T12C1.600
T13C2.300
T14C2.500
T15C3.200
%
G90
G05
T1
X42.647Y-222.758
X50.0Y-140.0
X60.303Y-209.982
X62.509Y-186.97
X62.86Y-152.776
X63.5Y-190.856
X63.5Y-190.856
X63.782Y-162.844
X64.008Y-194.564
X65.532Y-188.29
X66.294Y-169.418
X66.358Y-195.352
X67.056Y-176.276
X67.38Y-162.918
X67.397Y-192.143
X67.412Y-199.542
X67.564Y-178.308
X67.883Y-173.54
X67.953Y-149.45
X68.236Y-157.817
X68.248Y-191.277
X69.411Y-149.784
X69.466Y-166.113
X70.121Y-184.929
X70.612Y-122.174
X70.63Y-125.984
X71.574Y-157.213
X72.148Y-141.24
X72.619Y-201.092
X73.082Y-160.245
X73.21Y-143.51
X73.477Y-166.597
X75.184Y-151.384
X75.269Y-166.104
X75.565Y-58.42
X76.327Y-179.705
X76.392Y-176.511
X76.827Y-146.812
X77.47Y-163.83
X77.724Y-172.466
X78.486Y-156.718
X78.74Y-166.624
X80.01Y-124.968
X80.315Y-152.248
X80.518Y-121.92
X85.344Y-140.716
X85.725Y-190.5
X86.36Y-54.61
X86.36Y-56.515
X86.36Y-189.23
X86.36Y-191.77
X86.628Y-132.348
X87.63Y-37.465
X88.9Y-52.705
X88.9Y-63.5
X89.624Y-128.623
X89.77Y-69.958
X89.916Y-111.506
X90.068Y-41.402
X90.17Y-60.96
X90.17Y-66.04
X90.17Y-127.508
X90.722Y-126.448
X91.382Y-68.522
X91.44Y-100.965
X91.986Y-149.834
X91.986Y-175.076
X92.71Y-56.515
X92.71Y-64.77
X92.71Y-83.82
X92.71Y-193.04
X92.71Y-194.31
X92.71Y-195.58
X92.964Y-140.462
X93.066Y-41.072
X93.786Y-144.61
X93.98Y-67.31
X93.98Y-76.2
X94.234Y-45.466
X94.717Y-197.536
X94.869Y-167.386
X94.996Y-103.378
X95.123Y-172.847
X95.25Y-53.975
X95.25Y-62.23
X95.542Y-155.956
X96.156Y-177.102
X96.54Y-43.668
X96.55Y-52.802
X97.714Y-40.234
X98.298Y-120.142
X98.405Y-95.865
X99.06Y-44.704
X99.695Y-97.155
X100.33Y-45.72
X100.33Y-60.96
X100.895Y-99.625
X100.999Y-64.736
X101.592Y-42.302
X101.6Y-142.494
X102.235Y-91.44
X102.235Y-96.52
X102.362Y-168.529
X102.489Y-161.417
X102.534Y-173.38
X102.87Y-39.624
X102.87Y-113.03
X102.962Y-115.662
X103.505Y-98.425
X103.762Y-131.442
X104.269Y-67.306
X104.394Y-154.686
X104.648Y-41.148
X104.648Y-43.688
X104.775Y-102.235
X105.791Y-53.721
X106.172Y-87.249
X106.68Y-40.64
X107.95Y-39.37
X107.95Y-56.35
X107.95Y-63.5
X107.95Y-100.965
X108.474Y-45.196
X108.585Y-174.498
X108.655Y-86.43
X108.966Y-124.46
X109.22Y-60.96
X109.22Y-133.35
X110.236Y-179.324
X110.49Y-168.148
X111.531Y-131.547
X111.531Y-140.36
X111.76Y-88.735
X112.141Y-174.752
X112.649Y-129.794
X112.776Y-53.848
X113.284Y-157.988
X113.284Y-176.022
X113.665Y-87.63
X113.724Y-74.87
X114.3Y-60.96
X115.57Y-64.77
X115.57Y-131.572
X115.824Y-99.314
X116.205Y-200.66
X116.205Y-212.09
X116.586Y-63.5
X116.708Y-39.45
X117.475Y-91.313
X118.11Y-43.815
X118.333Y-41.44
X118.722Y-74.07
X118.999Y-202.692
X119.38Y-213.868
X119.507Y-118.491
X120.015Y-90.17
X120.015Y-190.5
X120.65Y-45.72
X120.65Y-52.578
X120.904Y-176.53
X121.285Y-71.755
X121.355Y-78.81
X121.92Y-42.545
X121.92Y-173.228
X122.555Y-156.21
X122.596Y-81.1
X123.444Y-175.26
X123.698Y-204.47
X123.698Y-215.9
X124.46Y-53.848
X124.46Y-77.47
X124.714Y-182.88
X126.365Y-80.01
X127.762Y-149.86
X127.762Y-186.944
X128.27Y-39.37
X128.905Y-40.64
X128.905Y-74.87
X128.905Y-76.2
X130.175Y-200.66
X130.175Y-212.09
X130.293Y-135.585
X131.039Y-52.095
X131.164Y-38.275
X131.445Y-71.755
X131.445Y-74.93
X132.08Y-47.752
X132.08Y-148.336
X133.096Y-202.565
X133.096Y-213.868
X133.35Y-104.902
X133.35Y-196.424
X133.604Y-89.408
X133.985Y-71.755
X133.985Y-73.66
X135.603Y-51.874
X135.89Y-81.28
X137.795Y-99.695
X137.922Y-204.47
X137.922Y-215.646
X138.684Y-71.628
X138.938Y-104.14
X139.589Y-165.83
X140.005Y-137.389
X140.081Y-169.164
X140.087Y-56.267
X140.208Y-179.197
X140.97Y-38.1
X141.605Y-87.63
X142.24Y-73.025
X142.494Y-100.33
X142.748Y-82.042
X144.145Y-73.025
X144.145Y-200.66
X144.145Y-212.09
X144.395Y-149.3
X144.78Y-97.224
X145.667Y-155.18
X146.05Y-52.07
X146.05Y-74.93
X147.32Y-202.565
X147.32Y-213.868
X147.376Y-46.99
X147.955Y-48.26
X148.225Y-154.654
X148.59Y-78.74
X148.653Y-52.006
X149.352Y-101.346
X149.86Y-59.182
X150.114Y-91.44
X150.495Y-49.53
X150.495Y-71.12
X150.495Y-76.2
X151.638Y-215.9
X151.892Y-204.47
X152.142Y-96.143
X152.4Y-90.805
X153.035Y-71.755
X153.162Y-36.322
X154.305Y-94.299
X154.361Y-40.005
X154.511Y-72.184
X154.686Y-60.452
X154.813Y-104.353
X155.662Y-90.257
X156.21Y-70.485
X156.275Y-36.195
X156.845Y-102.235
X156.861Y-170.148
X157.115Y-164.052
X157.115Y-177.768
X157.353Y-114.935
X158.114Y-88.901
X158.115Y-200.66
X158.347Y-163.29
X158.385Y-176.752
X158.541Y-37.84
X159.363Y-164.852
X159.396Y-37.174
X159.41Y-146.634
X159.588Y-40.005
X159.617Y-172.98
X159.725Y-184.048
X159.766Y-128.651
X159.975Y-93.808
X161.179Y-162.274
X161.231Y-113.223
X161.266Y-107.84
X161.29Y-202.565
X161.925Y-67.945
X162.449Y-154.654
X162.56Y-64.77
X162.56Y-123.19
X163.558Y-60.854
X163.576Y-91.948
X164.186Y-72.314
X165.1Y-54.61
X165.354Y-113.284
X165.862Y-204.47
X166.878Y-197.612
X167.132Y-125.476
X167.528Y-207.954
X168.148Y-38.862
X168.148Y-102.108
X168.544Y-75.416
X168.799Y-138.144
X168.91Y-81.915
X169.0Y-163.0
X169.237Y-186.006
X169.443Y-130.023
X170.637Y-42.89
X170.688Y-41.148
X170.917Y-63.824
X171.088Y-186.536
X171.45Y-93.345
X172.72Y-189.23
X172.974Y-132.842
X175.768Y-64.262
X176.276Y-151.892
X176.53Y-189.484
X176.735Y-90.183
X178.816Y-41.148
X178.816Y-194.056
X179.07Y-189.484
X179.578Y-118.11
X180.34Y-141.224
X180.975Y-53.776
X180.975Y-182.245
X181.61Y-46.99
X181.61Y-189.484
X182.107Y-80.67
X183.314Y-69.215
X183.318Y-90.903
X183.515Y-46.99
X184.15Y-177.292
X185.0Y-107.0
X185.928Y-140.97
X186.0Y-194.0
X186.944Y-182.372
X187.554Y-93.476
X188.468Y-189.23
X188.595Y-50.165
X189.23Y-78.105
X189.23Y-85.598
X189.865Y-170.053
X190.206Y-87.414
X190.246Y-201.676
X190.349Y-69.066
X191.022Y-90.975
X191.023Y-89.918
X191.516Y-179.197
X192.024Y-133.604
X192.278Y-32.512
X192.532Y-61.492
X192.57Y-69.088
X192.786Y-92.202
X193.04Y-63.5
X193.04Y-145.034
X193.675Y-73.025
X193.802Y-150.876
X194.31Y-218.694
X194.313Y-155.181
X194.818Y-77.724
X194.818Y-85.09
X194.945Y-71.628
X195.199Y-139.446
X195.707Y-142.24
X197.0Y-196.0
X197.739Y-137.541
X197.866Y-134.239
X198.12Y-188.722
X198.374Y-162.052
X198.628Y-151.892
X199.07Y-141.158
X201.041Y-196.596
X201.295Y-90.52
X201.651Y-149.479
X203.2Y-179.832
X204.47Y-89.885
X204.597Y-145.999
X204.653Y-142.361
X204.724Y-118.364
X205.335Y-127.811
X205.74Y-85.44
X206.375Y-56.085
X206.375Y-81.79
X206.978Y-88.647
X207.01Y-134.874
X207.264Y-120.904
X208.28Y-88.615
X208.28Y-93.63
X209.677Y-63.246
X210.82Y-93.63
X211.074Y-85.852
X211.48Y-151.714
X213.645Y-78.896
X213.995Y-77.185
X214.63Y-93.43
X215.9Y-93.695
X218.44Y-79.725
X221.234Y-133.604
X221.488Y-140.31
X221.59Y-147.904
T2
X203.84Y-61.31
X205.74Y-61.31
X116.065Y-135.6
X116.065Y-137.38
X116.065Y-139.16
X116.065Y-140.94
X116.065Y-142.72
X116.065Y-144.5
X116.065Y-146.28
X116.065Y-148.06
X116.065Y-149.84
X116.065Y-151.62
X116.065Y-153.4
X116.065Y-155.18
X116.065Y-156.96
X116.065Y-158.74
X116.065Y-160.52
X116.065Y-162.3
X116.065Y-164.08
X116.065Y-165.86
X116.065Y-167.64
X116.065Y-169.42
X116.065Y-171.2
X116.065Y-172.98
X116.065Y-174.76
X116.065Y-176.54
X116.065Y-178.32
X116.065Y-180.1
X116.065Y-181.88
X116.065Y-183.66
X116.065Y-185.44
X116.065Y-187.22
X116.065Y-189.0
X116.065Y-190.78
X135.065Y-135.6
X135.065Y-137.38
X135.065Y-139.16
X135.065Y-140.94
X135.065Y-142.72
X135.065Y-144.5
X135.065Y-146.28
X135.065Y-148.06
X135.065Y-149.84
X135.065Y-151.62
X135.065Y-153.4
X135.065Y-155.18
X135.065Y-156.96
X135.065Y-158.74
X135.065Y-160.52
X135.065Y-162.3
X135.065Y-164.08
X135.065Y-165.86
X135.065Y-167.64
X135.065Y-169.42
X135.065Y-171.2
X135.065Y-172.98
X135.065Y-174.76
X135.065Y-176.54
X135.065Y-178.32
X135.065Y-180.1
X135.065Y-181.88
X135.065Y-183.66
X135.065Y-185.44
X135.065Y-187.22
X135.065Y-189.0
X135.065Y-190.78
T3
X26.024Y-215.392
T4
X213.36Y-55.595
X214.63Y-55.595
X215.9Y-55.595
X213.36Y-60.675
X214.63Y-60.675
X215.9Y-60.675
T5
X28.0Y-193.75
X28.0Y-198.0
X33.1Y-210.86
X33.1Y-213.36
X35.6Y-210.86
X35.6Y-213.36
X38.1Y-210.86
X38.1Y-213.36
T6
X108.895Y-154.4
X111.395Y-154.4
X82.55Y-135.89
X82.55Y-138.43
X82.55Y-140.97
X82.55Y-143.51
X82.55Y-146.05
X82.55Y-148.59
X82.55Y-151.13
X82.55Y-153.67
X82.55Y-156.21
X82.55Y-158.75
X82.55Y-161.29
X82.55Y-163.83
X82.55Y-166.37
X82.55Y-168.91
X82.55Y-171.45
X82.55Y-173.99
X82.55Y-176.53
X82.55Y-179.07
X82.55Y-181.61
X82.55Y-184.15
X97.79Y-135.89
X97.79Y-138.43
X97.79Y-140.97
X97.79Y-143.51
X97.79Y-146.05
X97.79Y-148.59
X97.79Y-151.13
X97.79Y-153.67
X97.79Y-156.21
X97.79Y-158.75
X97.79Y-161.29
X97.79Y-163.83
X97.79Y-166.37
X97.79Y-168.91
X97.79Y-171.45
X97.79Y-173.99
X97.79Y-176.53
X97.79Y-179.07
X97.79Y-181.61
X97.79Y-184.15
X92.71Y-34.29
X92.71Y-49.53
X95.25Y-34.29
X95.25Y-49.53
X97.79Y-34.29
X97.79Y-49.53
X100.33Y-34.29
X100.33Y-49.53
X102.87Y-34.29
X102.87Y-49.53
X105.41Y-34.29
X105.41Y-49.53
X107.95Y-34.29
X107.95Y-49.53
X110.49Y-34.29
X110.49Y-49.53
X113.03Y-34.29
X113.03Y-49.53
X115.57Y-34.29
X115.57Y-49.53
X118.11Y-34.29
X118.11Y-49.53
X120.65Y-34.29
X120.65Y-49.53
X123.19Y-34.29
X123.19Y-49.53
X125.73Y-34.29
X125.73Y-49.53
X128.27Y-34.29
X128.27Y-49.53
X130.81Y-34.29
X130.81Y-49.53
X133.35Y-34.29
X133.35Y-49.53
X135.89Y-34.29
X135.89Y-49.53
X138.43Y-34.29
X138.43Y-49.53
X140.97Y-34.29
X140.97Y-49.53
X151.13Y-109.855
X151.13Y-117.475
X153.67Y-109.855
X153.67Y-117.475
X156.21Y-109.855
X156.21Y-117.475
X158.75Y-109.855
X158.75Y-117.475
X161.29Y-109.855
X161.29Y-117.475
X163.83Y-109.855
X163.83Y-117.475
X166.37Y-109.855
X166.37Y-117.475
X168.91Y-109.855
X168.91Y-117.475
X171.45Y-109.855
X171.45Y-117.475
X173.99Y-109.855
X173.99Y-117.475
X108.895Y-146.78
X111.395Y-146.78
X214.67Y-49.88
X217.17Y-49.88
X182.88Y-143.931
X182.88Y-146.431
X190.5Y-150.281
X190.5Y-152.781
X143.145Y-182.34
X143.145Y-189.96
X145.685Y-182.34
X145.685Y-189.96
X148.225Y-182.34
X148.225Y-189.96
X150.765Y-182.34
X150.765Y-189.96
X153.305Y-182.34
X153.305Y-189.96
X155.845Y-182.34
X155.845Y-189.96
X158.385Y-182.34
X158.385Y-189.96
X160.925Y-182.34
X160.925Y-189.96
X163.465Y-182.34
X163.465Y-189.96
X194.945Y-206.288
X194.945Y-208.788
X117.348Y-205.232
X119.848Y-205.232
X153.67Y-106.045
X153.67Y-121.285
X156.21Y-106.045
X156.21Y-121.285
X158.75Y-106.045
X158.75Y-121.285
X161.29Y-106.045
X161.29Y-121.285
X163.83Y-106.045
X163.83Y-121.285
X166.37Y-106.045
X166.37Y-121.285
X168.91Y-106.045
X168.91Y-121.285
X171.45Y-106.045
X171.45Y-121.285
X173.99Y-106.045
X173.99Y-121.285
X176.53Y-106.045
X176.53Y-121.285
X179.07Y-106.045
X179.07Y-121.285
X181.61Y-106.045
X181.61Y-121.285
X179.07Y-150.281
X179.07Y-152.781
X60.96Y-178.15
X60.96Y-180.69
X60.96Y-183.23
X60.96Y-185.77
X60.96Y-188.31
X60.96Y-190.85
X60.96Y-193.39
X60.96Y-195.93
X60.96Y-198.47
X131.064Y-216.916
X133.564Y-216.916
X84.252Y-214.935
X86.752Y-214.935
X117.348Y-216.916
X119.848Y-216.916
X59.817Y-213.919
X59.817Y-216.419
X107.95Y-200.7
X107.95Y-203.2
X84.303Y-207.315
X86.803Y-207.315
X198.755Y-65.755
X198.755Y-73.375
X201.295Y-65.755
X201.295Y-73.375
X203.835Y-65.755
X203.835Y-73.375
X206.375Y-65.755
X206.375Y-73.375
X208.915Y-65.755
X208.915Y-73.375
X211.455Y-65.755
X211.455Y-73.375
X213.995Y-65.755
X213.995Y-73.375
X216.535Y-65.755
X216.535Y-73.375
X219.075Y-65.755
X219.075Y-73.375
X97.587Y-202.463
X97.587Y-205.003
X97.587Y-212.623
X97.587Y-215.163
X97.587Y-217.703
X193.04Y-166.751
X195.54Y-166.751
X97.155Y-69.85
X97.155Y-85.09
X99.695Y-69.85
X99.695Y-85.09
X102.235Y-69.85
X102.235Y-85.09
X104.775Y-69.85
X104.775Y-85.09
X107.315Y-69.85
X107.315Y-85.09
X109.855Y-69.85
X109.855Y-85.09
X112.395Y-69.85
X112.395Y-85.09
X114.935Y-69.85
X114.935Y-85.09
X117.475Y-69.85
X117.475Y-85.09
X120.015Y-69.85
X120.015Y-85.09
X122.555Y-69.85
X122.555Y-85.09
X125.095Y-69.85
X125.095Y-85.09
X127.635Y-69.85
X127.635Y-85.09
X130.175Y-69.85
X130.175Y-85.09
X132.715Y-69.85
X132.715Y-85.09
X135.255Y-69.85
X135.255Y-85.09
X143.145Y-136.62
X143.145Y-144.24
X145.685Y-136.62
X145.685Y-144.24
X148.225Y-136.62
X148.225Y-144.24
X150.765Y-136.62
X150.765Y-144.24
X153.305Y-136.62
X153.305Y-144.24
X155.845Y-136.62
X155.845Y-144.24
X158.385Y-136.62
X158.385Y-144.24
X160.925Y-136.62
X160.925Y-144.24
X163.465Y-136.62
X163.465Y-144.24
X66.599Y-204.597
X66.599Y-207.097
X60.96Y-152.4
X60.96Y-154.94
X60.96Y-157.48
X60.96Y-160.02
X60.96Y-162.56
X60.96Y-165.1
X60.96Y-167.64
X60.96Y-170.18
X60.96Y-172.72
X143.145Y-151.86
X143.145Y-159.48
X145.685Y-151.86
X145.685Y-159.48
X148.225Y-151.86
X148.225Y-159.48
X150.765Y-151.86
X150.765Y-159.48
X153.305Y-151.86
X153.305Y-159.48
X155.845Y-151.86
X155.845Y-159.48
X158.385Y-151.86
X158.385Y-159.48
X160.925Y-151.86
X160.925Y-159.48
X163.465Y-151.86
X163.465Y-159.48
X159.385Y-205.232
X161.885Y-205.232
X188.595Y-104.18
X188.595Y-106.68
X145.288Y-216.916
X147.788Y-216.916
X190.246Y-142.407
X190.246Y-144.907
X94.615Y-202.463
X94.615Y-205.003
X94.615Y-210.083
X94.615Y-212.623
X94.615Y-215.163
X157.48Y-59.055
X157.48Y-61.595
X157.48Y-64.135
X157.48Y-66.675
X157.48Y-69.215
X157.48Y-71.755
X157.48Y-74.295
X157.48Y-76.835
X157.48Y-79.375
X157.48Y-81.915
X157.48Y-84.455
X160.02Y-56.515
X160.02Y-59.055
X160.02Y-61.595
X160.02Y-64.135
X160.02Y-66.675
X160.02Y-69.215
X160.02Y-71.755
X160.02Y-74.295
X160.02Y-76.835
X160.02Y-79.375
X160.02Y-81.915
X160.02Y-84.455
X160.02Y-86.995
X162.56Y-56.515
X162.56Y-59.055
X162.56Y-84.455
X162.56Y-86.995
X165.1Y-56.515
X165.1Y-59.055
X165.1Y-84.455
X165.1Y-86.995
X167.64Y-56.515
X167.64Y-59.055
X167.64Y-84.455
X167.64Y-86.995
X170.18Y-56.515
X170.18Y-59.055
X170.18Y-84.455
X170.18Y-86.995
X172.72Y-56.515
X172.72Y-59.055
X172.72Y-84.455
X172.72Y-86.995
X175.26Y-56.515
X175.26Y-59.055
X175.26Y-84.455
X175.26Y-86.995
X177.8Y-56.515
X177.8Y-59.055
X177.8Y-84.455
X177.8Y-86.995
X180.34Y-56.515
X180.34Y-59.055
X180.34Y-84.455
X180.34Y-86.995
X182.88Y-56.515
X182.88Y-59.055
X182.88Y-84.455
X182.88Y-86.995
X185.42Y-56.515
X185.42Y-59.055
X185.42Y-61.595
X185.42Y-64.135
X185.42Y-66.675
X185.42Y-69.215
X185.42Y-71.755
X185.42Y-74.295
X185.42Y-76.835
X185.42Y-79.375
X185.42Y-81.915
X185.42Y-84.455
X185.42Y-86.995
X187.96Y-59.055
X187.96Y-61.595
X187.96Y-64.135
X187.96Y-66.675
X187.96Y-69.215
X187.96Y-71.755
X187.96Y-74.295
X187.96Y-76.835
X187.96Y-79.375
X187.96Y-81.915
X187.96Y-84.455
X143.145Y-167.1
X143.145Y-174.72
X145.685Y-167.1
X145.685Y-174.72
X148.225Y-167.1
X148.225Y-174.72
X150.765Y-167.1
X150.765Y-174.72
X153.305Y-167.1
X153.305Y-174.72
X155.845Y-167.1
X155.845Y-174.72
X158.385Y-167.1
X158.385Y-174.72
X160.925Y-167.1
X160.925Y-174.72
X163.465Y-167.1
X163.465Y-174.72
X180.975Y-206.248
X180.975Y-208.788
X180.975Y-211.328
X180.975Y-213.868
X188.595Y-206.248
X188.595Y-208.788
X188.595Y-211.328
X188.595Y-213.868
X145.328Y-205.143
X147.828Y-205.143
X174.625Y-211.328
X174.625Y-213.828
X97.155Y-93.472
X97.155Y-108.712
X99.695Y-93.472
X99.695Y-108.712
X102.235Y-93.472
X102.235Y-108.712
X104.775Y-93.472
X104.775Y-108.712
X107.315Y-93.472
X107.315Y-108.712
X109.855Y-93.472
X109.855Y-108.712
X112.395Y-93.472
X112.395Y-108.712
X114.935Y-93.472
X114.935Y-108.712
X117.475Y-93.472
X117.475Y-108.712
X120.015Y-93.472
X120.015Y-108.712
X122.555Y-93.472
X122.555Y-108.712
X125.095Y-93.472
X125.095Y-108.712
X127.635Y-93.472
X127.635Y-108.712
X130.175Y-93.472
X130.175Y-108.712
X132.715Y-93.472
X132.715Y-108.712
X135.255Y-93.472
X135.255Y-108.712
X135.026Y-131.928
X139.906Y-131.928
X131.445Y-205.232
X133.945Y-205.232
X190.119Y-158.282
X190.119Y-160.782
X188.595Y-120.69
X188.595Y-123.19
X175.514Y-156.631
X175.514Y-159.131
X67.285Y-213.868
X67.285Y-216.368
T7
X134.954Y-124.968
X139.954Y-124.968
T8
X51.079Y-185.643
X53.619Y-185.643
X56.159Y-185.643
X51.308Y-53.34
X51.308Y-55.88
X51.308Y-58.42
X51.308Y-60.96
X51.308Y-63.5
X51.308Y-66.04
X51.308Y-68.58
X51.308Y-71.12
X51.308Y-73.66
X51.308Y-76.2
X51.308Y-78.74
X51.308Y-81.28
X51.308Y-83.82
X51.308Y-86.36
X51.308Y-88.9
X51.308Y-91.44
X51.308Y-93.98
X51.308Y-96.52
X51.308Y-99.06
X51.308Y-101.6
X51.308Y-104.14
X51.308Y-106.68
X51.308Y-109.22
X51.308Y-111.76
X51.308Y-114.3
X53.848Y-53.34
X53.848Y-55.88
X53.848Y-58.42
X53.848Y-60.96
X53.848Y-63.5
X53.848Y-66.04
X53.848Y-68.58
X53.848Y-71.12
X53.848Y-73.66
X53.848Y-76.2
X53.848Y-78.74
X53.848Y-81.28
X53.848Y-83.82
X53.848Y-86.36
X53.848Y-88.9
X53.848Y-91.44
X53.848Y-93.98
X53.848Y-96.52
X53.848Y-99.06
X53.848Y-101.6
X53.848Y-104.14
X53.848Y-106.68
X53.848Y-109.22
X53.848Y-111.76
X53.848Y-114.3
X56.388Y-53.34
X56.388Y-55.88
X56.388Y-58.42
X56.388Y-60.96
X56.388Y-63.5
X56.388Y-66.04
X56.388Y-68.58
X56.388Y-71.12
X56.388Y-73.66
X56.388Y-76.2
X56.388Y-78.74
X56.388Y-81.28
X56.388Y-83.82
X56.388Y-86.36
X56.388Y-88.9
X56.388Y-91.44
X56.388Y-93.98
X56.388Y-96.52
X56.388Y-99.06
X56.388Y-101.6
X56.388Y-104.14
X56.388Y-106.68
X56.388Y-109.22
X56.388Y-111.76
X56.388Y-114.3
X172.72Y-35.56
X172.72Y-38.1
X175.26Y-35.56
X175.26Y-38.1
X177.8Y-35.56
X177.8Y-38.1
X180.34Y-35.56
X180.34Y-38.1
X182.88Y-35.56
X182.88Y-38.1
X51.079Y-154.94
X53.619Y-154.94
X56.159Y-154.94
X212.71Y-122.84
X215.25Y-122.84
X217.79Y-122.84
X33.076Y-208.077
X35.616Y-208.077
X38.156Y-208.077
X215.19Y-140.875
X215.19Y-147.225
X217.73Y-140.875
X217.73Y-147.225
X31.242Y-155.575
X31.242Y-157.65
X31.242Y-159.85
X31.242Y-161.925
X33.782Y-155.575
X33.782Y-161.925
X51.079Y-162.56
X53.619Y-162.56
X56.159Y-162.56
X51.079Y-158.75
X53.619Y-158.75
X56.159Y-158.75
X43.642Y-190.305
X43.642Y-193.075
X43.642Y-195.845
X43.642Y-198.615
X46.482Y-188.92
X46.482Y-191.69
X46.482Y-194.46
X46.482Y-197.23
X46.482Y-200.0
X51.079Y-181.833
X53.619Y-181.833
X56.159Y-181.833
X212.71Y-134.27
X215.25Y-134.27
X217.79Y-134.27
X31.772Y-174.981
X31.772Y-177.481
X31.772Y-179.481
X31.772Y-181.981
X34.392Y-174.981
X34.392Y-177.481
X34.392Y-179.481
X34.392Y-181.981
X207.68Y-177.006
X207.68Y-179.546
X61.468Y-53.34
X61.468Y-55.88
X61.468Y-58.42
X61.468Y-60.96
X61.468Y-63.5
X61.468Y-66.04
X61.468Y-68.58
X61.468Y-71.12
X61.468Y-73.66
X61.468Y-76.2
X61.468Y-78.74
X61.468Y-81.28
X61.468Y-83.82
X61.468Y-86.36
X61.468Y-88.9
X61.468Y-91.44
X61.468Y-93.98
X61.468Y-96.52
X61.468Y-99.06
X61.468Y-101.6
X61.468Y-104.14
X61.468Y-106.68
X61.468Y-109.22
X61.468Y-111.76
X61.468Y-114.3
X64.008Y-53.34
X64.008Y-55.88
X64.008Y-58.42
X64.008Y-60.96
X64.008Y-63.5
X64.008Y-66.04
X64.008Y-68.58
X64.008Y-71.12
X64.008Y-73.66
X64.008Y-76.2
X64.008Y-78.74
X64.008Y-81.28
X64.008Y-83.82
X64.008Y-86.36
X64.008Y-88.9
X64.008Y-91.44
X64.008Y-93.98
X64.008Y-96.52
X64.008Y-99.06
X64.008Y-101.6
X64.008Y-104.14
X64.008Y-106.68
X64.008Y-109.22
X64.008Y-111.76
X64.008Y-114.3
X66.548Y-53.34
X66.548Y-55.88
X66.548Y-58.42
X66.548Y-60.96
X66.548Y-63.5
X66.548Y-66.04
X66.548Y-68.58
X66.548Y-71.12
X66.548Y-73.66
X66.548Y-76.2
X66.548Y-78.74
X66.548Y-81.28
X66.548Y-83.82
X66.548Y-86.36
X66.548Y-88.9
X66.548Y-91.44
X66.548Y-93.98
X66.548Y-96.52
X66.548Y-99.06
X66.548Y-101.6
X66.548Y-104.14
X66.548Y-106.68
X66.548Y-109.22
X66.548Y-111.76
X66.548Y-114.3
X212.71Y-119.03
X215.25Y-119.03
X217.79Y-119.03
X175.514Y-135.382
X178.054Y-135.382
X180.594Y-135.382
X183.134Y-135.382
X185.674Y-135.382
X188.214Y-135.382
X190.754Y-135.382
X193.294Y-135.382
X195.834Y-135.382
X51.079Y-189.453
X53.619Y-189.453
X56.159Y-189.453
X212.71Y-126.65
X215.25Y-126.65
X217.79Y-126.65
X175.26Y-187.071
X177.8Y-187.071
X180.34Y-187.071
X182.88Y-187.071
X185.42Y-187.071
X187.96Y-187.071
X190.5Y-187.071
X193.04Y-187.071
X195.58Y-187.071
X212.71Y-130.46
X215.25Y-130.46
X217.79Y-130.46
X78.105Y-53.34
X78.105Y-55.88
X78.105Y-58.42
X78.105Y-60.96
X78.105Y-63.5
X78.105Y-66.04
X78.105Y-68.58
X78.105Y-71.12
X78.105Y-73.66
X78.105Y-76.2
X78.105Y-78.74
X78.105Y-81.28
X78.105Y-83.82
X78.105Y-86.36
X78.105Y-88.9
X78.105Y-91.44
X78.105Y-93.98
X78.105Y-96.52
X78.105Y-99.06
X78.105Y-101.6
X78.105Y-104.14
X78.105Y-106.68
X78.105Y-109.22
X78.105Y-111.76
X78.105Y-114.3
X80.645Y-53.34
X80.645Y-55.88
X80.645Y-58.42
X80.645Y-60.96
X80.645Y-63.5
X80.645Y-66.04
X80.645Y-68.58
X80.645Y-71.12
X80.645Y-73.66
X80.645Y-76.2
X80.645Y-78.74
X80.645Y-81.28
X80.645Y-83.82
X80.645Y-86.36
X80.645Y-88.9
X80.645Y-91.44
X80.645Y-93.98
X80.645Y-96.52
X80.645Y-99.06
X80.645Y-101.6
X80.645Y-104.14
X80.645Y-106.68
X80.645Y-109.22
X80.645Y-111.76
X80.645Y-114.3
X83.185Y-53.34
X83.185Y-55.88
X83.185Y-58.42
X83.185Y-60.96
X83.185Y-63.5
X83.185Y-66.04
X83.185Y-68.58
X83.185Y-71.12
X83.185Y-73.66
X83.185Y-76.2
X83.185Y-78.74
X83.185Y-81.28
X83.185Y-83.82
X83.185Y-86.36
X83.185Y-88.9
X83.185Y-91.44
X83.185Y-93.98
X83.185Y-96.52
X83.185Y-99.06
X83.185Y-101.6
X83.185Y-104.14
X83.185Y-106.68
X83.185Y-109.22
X83.185Y-111.76
X83.185Y-114.3
X43.642Y-157.691
X43.642Y-160.461
X43.642Y-163.231
X43.642Y-166.001
X46.482Y-156.306
X46.482Y-159.076
X46.482Y-161.846
X46.482Y-164.616
X46.482Y-167.386
T9
X27.076Y-208.077
T10
X29.9Y-214.11
X41.3Y-210.11
X39.624Y-215.392
X43.424Y-215.392
X47.224Y-215.392
T11
X30.5Y-192.25
X30.5Y-199.5
X207.0Y-98.5
X207.0Y-106.0
X207.0Y-113.5
X209.5Y-101.0
X209.5Y-110.5
X212.0Y-98.5
X212.0Y-106.0
X212.0Y-113.5
X196.045Y-40.355
X216.535Y-40.355
T12
X221.5Y-101.0
X221.5Y-110.5
T13
X29.062Y-171.911
X29.062Y-185.051
X34.642Y-171.911
X34.642Y-185.051
T14
X222.555Y-168.561
X222.555Y-176.561
X222.555Y-181.166
X222.555Y-189.166
X222.52Y-156.274
X222.52Y-164.274
T15
X46.182Y-181.96
X46.182Y-206.96
X46.182Y-149.346
X46.182Y-174.346
T6
G00X211.855Y-210.085
M15
G01X211.855Y-212.285
M16
G05
G00X213.755Y-206.685
M15
G01X215.955Y-206.685
M16
G05
G00X217.855Y-210.085
M15
G01X217.855Y-212.285
M16
G05
G00X215.405Y-168.811
M15
G01X213.705Y-168.811
M16
G05
G00X215.405Y-176.311
M15
G01X213.705Y-176.311
M16
G05
G00X215.405Y-181.416
M15
G01X213.705Y-181.416
M16
G05
G00X215.405Y-188.916
M15
G01X213.705Y-188.916
M16
G05
G00X212.09Y-198.29
M15
G01X212.09Y-200.49
M16
G05
G00X213.99Y-194.89
M15
G01X216.19Y-194.89
M16
G05
G00X218.09Y-198.29
M15
G01X218.09Y-200.49
M16
G05
G00X215.37Y-156.524
M15
G01X213.67Y-156.524
M16
G05
G00X215.37Y-164.024
M15
G01X213.67Y-164.024
M16
G05
T8
G00X220.0Y-137.065
M15
G01X222.0Y-137.065
M16
G05
G00X221.0Y-144.55
M15
G01X221.0Y-143.55
M16
G05
G00X220.0Y-151.035
M15
G01X222.0Y-151.035
M16
G05
G00X28.972Y-151.765
M15
G01X26.972Y-151.765
M16
G05
G00X27.972Y-157.75
M15
G01X27.972Y-159.75
M16
G05
G00X28.972Y-165.735
M15
G01X26.972Y-165.735
M16
G05
T10
G00X219.555Y-171.961
M15
G01X219.555Y-173.161
M16
G05
G00X219.555Y-184.566
M15
G01X219.555Y-185.766
M16
G05
G00X219.52Y-159.674
M15
G01X219.52Y-160.874
M16
G05
T0
M30
